<svg xmlns="http://www.w3.org/2000/svg" width="32" height="32">
  <path d="M22.22 5.764a3 3 0 0 1 1.42 3.288l-.396 1.673c.361.499.67 1.034.92 1.595l1.35.405A3.42 3.42 0 0 1 27.95 16v.312a3 3 0 0 1-2.138 2.873l-1.648.495a9.094 9.094 0 0 1-.92 1.594l.324 1.37a3.42 3.42 0 0 1-1.618 3.748l-.27.156a3 3 0 0 1-3.557-.415l-1.253-1.18a8.991 8.991 0 0 1-1.841.002l-1.024.965a3.42 3.42 0 0 1-4.055.472l-.27-.156a3 3 0 0 1-1.42-3.288l.396-1.673a8.991 8.991 0 0 1-.92-1.595l-1.349-.405A3.42 3.42 0 0 1 3.95 16v-.312a3 3 0 0 1 2.138-2.873l1.648-.495a9.094 9.094 0 0 1 .92-1.594l-.324-1.37A3.42 3.42 0 0 1 9.95 5.607l.27-.156a3 3 0 0 1 3.558.415l1.252 1.18a8.991 8.991 0 0 1 1.842-.002l1.024-.965a3.42 3.42 0 0 1 4.054-.472l.27.156zm-1 1.732l-.27-.156a1.42 1.42 0 0 0-1.683.196l-1.726 1.627-.486-.077a6.991 6.991 0 0 0-2.207.001l-.486.078-1.956-1.843a1 1 0 0 0-1.186-.138l-.27.156a1.42 1.42 0 0 0-.671 1.555l.546 2.31-.31.381A7.06 7.06 0 0 0 9.412 13.5l-.176.459-2.572.771a1 1 0 0 0-.713.958V16c0 .627.411 1.18 1.012 1.36l2.275.682.175.46a6.991 6.991 0 0 0 1.103 1.912l.31.382-.618 2.612a1 1 0 0 0 .473 1.096l.27.156a1.42 1.42 0 0 0 1.683-.196l1.727-1.627.485.077a6.991 6.991 0 0 0 2.208-.001l.486-.078 1.955 1.843a1 1 0 0 0 1.186.138l.27-.156a1.42 1.42 0 0 0 .672-1.555l-.546-2.31.309-.381A7.06 7.06 0 0 0 22.49 18.5l.176-.459 2.572-.771a1 1 0 0 0 .712-.958V16a1.42 1.42 0 0 0-1.011-1.36l-2.275-.682-.176-.46a6.991 6.991 0 0 0-1.102-1.912l-.31-.382.618-2.612a1 1 0 0 0-.474-1.096zm-3.27 5.04a4 4 0 1 1-4 6.928 4 4 0 0 1 4-6.928zm-1 1.732a2 2 0 1 0-2 3.464 2 2 0 0 0 2-3.464z"/>
</svg>
