<?xml version="1.0" encoding="UTF-8"?>
<svg width="32px" height="32px" viewBox="0 0 32 32" version="1.1" xmlns="http://www.w3.org/2000/svg" xmlns:xlink="http://www.w3.org/1999/xlink">
    <!-- Generator: Sketch 57.1 (83088) - https://sketch.com -->
    <title>icons/tab bar/account</title>
    <desc>Created with Sketch.</desc>
    <g id="icons/tab-bar/account" stroke="none" stroke-width="1" >
        <path d="M16.2621877,4 C17.5870124,4 18.754981,4.86900446 19.1356666,6.13795634 L19.6295581,7.78426129 C20.1914816,8.03625532 20.725599,8.34538517 21.2238333,8.706181 L22.5947494,8.38209107 C24.0642169,8.03470321 25.5875683,8.69232659 26.3425539,10 L26.4985232,10.2701468 C27.1609356,11.4174786 26.9923399,12.8634714 26.0837382,13.8276307 L24.9037077,15.0798155 C24.9346592,15.3841852 24.950249,15.6911915 24.950249,16 C24.950249,16.3088085 24.9346592,16.6158148 24.9037077,16.9201845 L25.8698019,17.9453516 C26.9053823,19.0442539 27.0975395,20.6923266 26.3425539,22 L26.1865845,22.2701468 C25.5241722,23.4174786 24.187608,23.9944669 22.8983206,23.6896744 L21.2238333,23.293819 C20.725599,23.6546148 20.1914816,23.9637447 19.6295581,24.2157387 L19.2253015,25.5632606 C18.7914145,27.0095507 17.4602202,28 15.950249,28 L15.6383103,28 C14.3134857,28 13.145517,27.1309955 12.7648315,25.8620437 L12.27094,24.2157387 C11.7090164,23.9637447 11.1748991,23.6546148 10.6766648,23.293819 L9.30574868,23.6179089 C7.8362812,23.9652968 6.31292979,23.3076734 5.55794419,22 L5.40197484,21.7298532 C4.73956251,20.5825214 4.90815814,19.1365286 5.81675992,18.1723693 L6.99679034,16.9201845 C6.96583887,16.6158148 6.95024904,16.3088085 6.95024904,16 C6.95024904,15.6911915 6.96583887,15.3841852 6.99679034,15.0798155 L6.0306962,14.0546484 C4.99511575,12.9557461 4.8029586,11.3076734 5.55794419,10 L5.71391354,9.72985316 C6.37632587,8.58252135 7.71289012,8.00553308 9.00217747,8.31032565 L10.6766648,8.706181 C11.1748991,8.34538517 11.7090164,8.03625532 12.27094,7.78426129 L12.6751966,6.43673943 C13.1090836,4.99044933 14.4402778,4 15.950249,4 L16.2621877,4 Z M16.2621877,6 L15.950249,6 C15.3234943,6 14.7709458,6.41111302 14.5908491,7.0114352 L13.9091424,9.28379096 L13.4499011,9.45947295 C12.7582667,9.72405654 12.1135377,10.0975831 11.5389754,10.5645351 L11.1571036,10.8748857 L8.54205233,10.2566773 C8.11228988,10.1550798 7.66676846,10.3474092 7.44596435,10.7298532 L7.289995,11 C6.97661762,11.5427855 7.05637769,12.2268631 7.48622362,12.6829925 L9.11366211,14.4099426 L9.0368398,14.8948975 C8.97935438,15.2577847 8.95024904,15.626863 8.95024904,16 C8.95024904,16.373137 8.97935438,16.7422153 9.0368398,17.1051025 L9.11366211,17.5900574 L7.27228734,19.5440252 C6.96942008,19.8654116 6.91322154,20.3474092 7.13402565,20.7298532 L7.289995,21 C7.60337237,21.5427855 8.23568095,21.8157501 8.84562353,21.6715573 L11.1571036,21.1251143 L11.5389754,21.4354649 C12.1135377,21.9024169 12.7582667,22.2759435 13.4499011,22.5405271 L13.9091424,22.716209 L14.6804841,25.2873479 C14.8073792,25.7103318 15.1967021,26 15.6383103,26 L15.950249,26 C16.5770038,26 17.1295523,25.588887 17.3096489,24.9885648 L17.9913557,22.716209 L18.450597,22.5405271 C19.1422314,22.2759435 19.7869603,21.9024169 20.3615227,21.4354649 L20.7433944,21.1251143 L23.3584457,21.7433227 C23.7882082,21.8449202 24.2337296,21.6525908 24.4545337,21.2701468 L24.6105031,21 C24.9238805,20.4572145 24.8441204,19.7731369 24.4142745,19.3170075 L22.786836,17.5900574 L22.8636583,17.1051025 C22.9211437,16.7422153 22.950249,16.373137 22.950249,16 C22.950249,15.626863 22.9211437,15.2577847 22.8636583,14.8948975 L22.786836,14.4099426 L24.6282107,12.4559748 C24.931078,12.1345884 24.9872765,11.6525908 24.7664724,11.2701468 L24.6105031,11 C24.2971257,10.4572145 23.6648171,10.1842499 23.0548745,10.3284427 L20.7433944,10.8748857 L20.3615227,10.5645351 C19.7869603,10.0975831 19.1422314,9.72405654 18.450597,9.45947295 L17.9913557,9.28379096 L17.220014,6.71265211 C17.0931188,6.28966815 16.703796,6 16.2621877,6 Z M15.950249,12 C18.159388,12 19.950249,13.790861 19.950249,16 C19.950249,18.209139 18.159388,20 15.950249,20 C13.74111,20 11.950249,18.209139 11.950249,16 C11.950249,13.790861 13.74111,12 15.950249,12 Z M15.950249,14 C14.8456795,14 13.950249,14.8954305 13.950249,16 C13.950249,17.1045695 14.8456795,18 15.950249,18 C17.0548185,18 17.950249,17.1045695 17.950249,16 C17.950249,14.8954305 17.0548185,14 15.950249,14 Z" id="Combined-Shape" transform="translate(15.950249, 16.000000) rotate(30.000000) translate(-15.950249, -16.000000) "></path>
    </g>
</svg>
