<?xml version="1.0" encoding="UTF-8"?>
<svg width="32px" height="32px" viewBox="0 0 32 32" version="1.1" xmlns="http://www.w3.org/2000/svg" xmlns:xlink="http://www.w3.org/1999/xlink">
    <!-- Generator: Sketch 57.1 (83088) - https://sketch.com -->
    <title>icons/tab bar/calendar</title>
    <desc>Created with Sketch.</desc>
    <g id="icons/tab-bar/calendar" stroke="none" stroke-width="1" >
        <path d="M20,5 C20.5522847,5 21,5.44771525 21,6 L21,7 L24,7 C25.1045695,7 26,7.8954305 26,9 L26,24 C26,25.1045695 25.1045695,26 24,26 L8,26 C6.8954305,26 6,25.1045695 6,24 L6,9 C6,7.8954305 6.8954305,7 8,7 L10.999,7 L11,6 C11,5.44771525 11.4477153,5 12,5 C12.5522847,5 13,5.44771525 13,6 L12.999,7 L19,7 L19,6 C19,5.44771525 19.4477153,5 20,5 Z M24,14 L8,14 L8,24 L24,24 L24,14 Z M11,20 C11.5522847,20 12,20.4477153 12,21 C12,21.5522847 11.5522847,22 11,22 C10.4477153,22 10,21.5522847 10,21 C10,20.4477153 10.4477153,20 11,20 Z M16,20 C16.5522847,20 17,20.4477153 17,21 C17,21.5522847 16.5522847,22 16,22 C15.4477153,22 15,21.5522847 15,21 C15,20.4477153 15.4477153,20 16,20 Z M21,20 C21.5522847,20 22,20.4477153 22,21 C22,21.5522847 21.5522847,22 21,22 C20.4477153,22 20,21.5522847 20,21 C20,20.4477153 20.4477153,20 21,20 Z M11,16 C11.5522847,16 12,16.4477153 12,17 C12,17.5522847 11.5522847,18 11,18 C10.4477153,18 10,17.5522847 10,17 C10,16.4477153 10.4477153,16 11,16 Z M16,16 C16.5522847,16 17,16.4477153 17,17 C17,17.5522847 16.5522847,18 16,18 C15.4477153,18 15,17.5522847 15,17 C15,16.4477153 15.4477153,16 16,16 Z M21,16 C21.5522847,16 22,16.4477153 22,17 C22,17.5522847 21.5522847,18 21,18 C20.4477153,18 20,17.5522847 20,17 C20,16.4477153 20.4477153,16 21,16 Z M24,9 L8,9 L8,12 L24,12 L24,9 Z" id="Combined-Shape"></path>
    </g>
</svg>
