<?xml version="1.0" encoding="UTF-8"?>
<svg width="32px" height="32px" viewBox="0 0 32 32" version="1.1" xmlns="http://www.w3.org/2000/svg" xmlns:xlink="http://www.w3.org/1999/xlink">
    <!-- Generator: Sketch 57.1 (83088) - https://sketch.com -->
    <title>icons/tab bar/search</title>
    <desc>Created with Sketch.</desc>
    <g id="icons/tab-bar/search" stroke="none" stroke-width="1" >
        <path d="M14.5,5 C19.1944204,5 23,8.80557963 23,13.5 C23,15.4869834 22.3182183,17.3147282 21.175829,18.7620601 L25.7781746,23.363961 C26.1686989,23.7544853 26.1686989,24.3876503 25.7781746,24.7781746 C25.3876503,25.1686989 24.7544853,25.1686989 24.363961,24.7781746 L19.7620601,20.175829 C18.3147282,21.3182183 16.4869834,22 14.5,22 C9.80557963,22 6,18.1944204 6,13.5 C6,8.80557963 9.80557963,5 14.5,5 Z M14.5,7 C10.9101491,7 8,9.91014913 8,13.5 C8,17.0898509 10.9101491,20 14.5,20 C18.0898509,20 21,17.0898509 21,13.5 C21,9.91014913 18.0898509,7 14.5,7 Z" id="Combined-Shape"></path>
    </g>
</svg>
